<?xml version="1.0" encoding="UTF-8" standalone="no"?>
<svg
   xmlns:dc="http://purl.org/dc/elements/1.1/"
   xmlns:cc="http://creativecommons.org/ns#"
   xmlns:rdf="http://www.w3.org/1999/02/22-rdf-syntax-ns#"
   xmlns:svg="http://www.w3.org/2000/svg"
   xmlns="http://www.w3.org/2000/svg"
   xmlns:sodipodi="http://sodipodi.sourceforge.net/DTD/sodipodi-0.dtd"
   xmlns:inkscape="http://www.inkscape.org/namespaces/inkscape"
   inkscape:export-ydpi="1040"
   inkscape:export-xdpi="1040"
   inkscape:export-filename="D:\IMP\NoticeMe\Logo_V1.png"
   viewBox="0 0 50 50"
   version="1.1"
   id="svg8"
   inkscape:version="1.0 (4035a4fb49, 2020-05-01)"
   sodipodi:docname="Logo_V1.svg">
  <defs
     id="defs2" />
  <sodipodi:namedview
     id="base"
     pagecolor="#ffffff"
     bordercolor="#666666"
     borderopacity="1.0"
     inkscape:pageopacity="0.0"
     inkscape:pageshadow="2"
     inkscape:zoom="2.8284271"
     inkscape:cx="103.23175"
     inkscape:cy="99.672304"
     inkscape:document-units="mm"
     inkscape:current-layer="layer1"
     inkscape:document-rotation="0"
     showgrid="false"
     inkscape:window-width="1920"
     inkscape:window-height="1017"
     inkscape:window-x="-8"
     inkscape:window-y="-8"
     inkscape:window-maximized="1"
     inkscape:snap-global="false" />
  <metadata
     id="metadata5">
    <rdf:RDF>
      <cc:Work
         rdf:about="">
        <dc:format>image/svg+xml</dc:format>
        <dc:type
           rdf:resource="http://purl.org/dc/dcmitype/StillImage" />
        <dc:title />
      </cc:Work>
    </rdf:RDF>
  </metadata>
  <g
     inkscape:label="Ebene 1"
     inkscape:groupmode="layer"
     id="layer1">
    <path
       id="path832"
       style="fill:#00b100;fill-opacity:1;stroke-width:0.835276"
       d="M 73.800781 2.4609375 C 73.324386 2.4585246 72.825825 2.5143019 72.308594 2.640625 A 94.488189 94.488189 0 0 0 72.304688 2.640625 C 72.300678 2.6415932 72.296978 2.6435625 72.292969 2.6445312 C 70.998665 2.9572366 69.716556 3.2959331 68.445312 3.6601562 A 94.488189 94.488189 0 0 0 68.289062 3.7050781 C 67.064556 4.0581891 65.850507 4.4361392 64.648438 4.8359375 A 94.488189 94.488189 0 0 0 64.619141 4.8457031 A 94.488189 94.488189 0 0 0 64.394531 4.921875 C 63.196087 5.3242515 62.009054 5.7495482 60.833984 6.1972656 A 94.488189 94.488189 0 0 0 60.800781 6.2089844 A 94.488189 94.488189 0 0 0 60.650391 6.2675781 C 59.474963 6.7182441 58.311147 7.190589 57.160156 7.6855469 A 94.488189 94.488189 0 0 0 57.013672 7.7480469 C 56.99865 7.7545367 56.983767 7.7610809 56.96875 7.7675781 C 55.832453 8.2591979 54.709106 8.7728927 53.597656 9.3066406 A 94.488189 94.488189 0 0 0 53.339844 9.4296875 A 94.488189 94.488189 0 0 0 53.298828 9.4492188 C 52.185458 9.9887166 51.085374 10.550099 49.998047 11.130859 A 94.488189 94.488189 0 0 0 49.851562 11.207031 C 48.728432 11.809447 47.619621 12.434778 46.525391 13.080078 C 46.502785 13.093409 46.479625 13.105791 46.457031 13.119141 C 31.808522 21.774293 19.802129 34.220766 11.666016 49.009766 C 11.649155 49.040414 11.632062 49.070894 11.615234 49.101562 C 11.028348 50.171155 10.46391 51.25416 9.9179688 52.347656 A 94.488189 94.488189 0 0 0 9.9042969 52.375 A 94.488189 94.488189 0 0 0 9.7460938 52.697266 C 9.2426596 53.716128 8.7582023 54.744695 8.2910156 55.783203 A 94.488189 94.488189 0 0 0 8.0292969 56.371094 C 7.6161735 57.306448 7.2211282 58.250795 6.8378906 59.201172 A 94.488189 94.488189 0 0 0 6.4316406 60.228516 C 6.0904436 61.104137 5.7608204 61.985515 5.4453125 62.873047 A 94.488189 94.488189 0 0 0 5.4414062 62.880859 A 94.488189 94.488189 0 0 0 5.0722656 63.947266 C 4.7965456 64.753649 4.5335714 65.565287 4.2792969 66.380859 A 94.488189 94.488189 0 0 0 3.8417969 67.818359 C 3.6023978 68.631791 3.3741096 69.449588 3.15625 70.271484 A 94.488189 94.488189 0 0 0 2.8144531 71.605469 C 2.6008449 72.461822 2.3970059 73.322643 2.2070312 74.1875 A 94.488189 94.488189 0 0 0 1.9589844 75.347656 C 1.7621499 76.301029 1.5779152 77.257787 1.4101562 78.220703 A 94.488189 94.488189 0 0 0 1.2402344 79.230469 C 1.0737024 80.251951 0.92241418 81.279192 0.7890625 82.310547 A 94.488189 94.488189 0 0 0 0.6875 83.117188 C 0.54730976 84.28015 0.42545791 85.446661 0.328125 86.621094 A 94.488189 94.488189 0 0 0 0.30664062 86.873047 C 0.20330941 88.161663 0.12502693 89.456577 0.07421875 90.757812 A 94.488189 94.488189 0 0 0 0.0703125 90.861328 C 0.069992929 90.869748 0.070629852 90.878298 0.0703125 90.886719 C 0.019546473 92.233706 -0.0046251392 93.588054 0.001953125 94.947266 C 0.0019562883 94.947919 0.0019499484 94.948565 0.001953125 94.949219 C 0.0056020006 95.697859 0.018113978 96.4431 0.0390625 97.1875 A 94.488189 94.488189 0 0 0 0.05078125 97.546875 C 0.071655091 98.201457 0.10065375 98.854724 0.13476562 99.505859 A 94.488189 94.488189 0 0 0 0.16601562 100.07617 A 94.488189 94.488189 0 0 0 0.16601562 100.0918 C 0.19793209 100.63694 0.23623032 101.18005 0.27734375 101.72266 A 94.488189 94.488189 0 0 0 0.27929688 101.74219 A 94.488189 94.488189 0 0 0 0.37695312 102.90039 C 0.4072163 103.24321 0.43874411 103.58598 0.47265625 103.92773 A 94.488189 94.488189 0 0 0 0.49609375 104.16602 A 94.488189 94.488189 0 0 0 0.67773438 105.79102 A 94.488189 94.488189 0 0 0 18.15625 150.17773 A 94.488189 94.488189 0 0 0 19.505859 151.98047 A 94.488189 94.488189 0 0 0 20.126953 152.78516 A 94.488189 94.488189 0 0 0 20.634766 153.42578 C 20.674977 153.4761 20.715547 153.52594 20.755859 153.57617 C 21.012963 153.89657 21.272031 154.2143 21.533203 154.53125 A 94.488189 94.488189 0 0 0 21.666016 154.69531 A 94.488189 94.488189 0 0 0 22.035156 155.13672 C 22.436589 155.61575 22.84127 156.09358 23.251953 156.56445 A 94.488189 94.488189 0 0 0 23.255859 156.56836 C 23.280429 156.59653 23.305475 156.62421 23.330078 156.65234 C 23.790224 157.17861 24.255033 157.69899 24.726562 158.21484 C 24.754258 158.24514 24.780859 158.27638 24.808594 158.30664 C 25.297028 158.8396 25.79258 159.36707 26.292969 159.88867 C 26.316244 159.91293 26.338027 159.93865 26.361328 159.96289 C 26.873122 160.49525 27.391984 161.02075 27.916016 161.54102 C 27.919282 161.54426 27.922514 161.54754 27.925781 161.55078 C 28.435836 162.05702 28.951229 162.55816 29.472656 163.05273 A 94.488189 94.488189 0 0 0 29.527344 163.10352 C 29.548749 163.12379 29.570373 163.14381 29.591797 163.16406 C 30.070196 163.61627 30.55326 164.06363 31.041016 164.50586 A 94.488189 94.488189 0 0 0 31.269531 164.71289 A 94.488189 94.488189 0 0 0 31.273438 164.7168 C 31.758135 165.15334 32.248491 165.5832 32.742188 166.00977 A 94.488189 94.488189 0 0 0 33.011719 166.24219 C 33.504879 166.66508 34.003965 167.08328 34.505859 167.49609 A 94.488189 94.488189 0 0 0 34.798828 167.73633 C 35.258003 168.11094 35.721215 168.47961 36.1875 168.8457 A 94.488189 94.488189 0 0 0 36.28125 168.91992 A 94.488189 94.488189 0 0 0 36.773438 169.30078 C 37.094847 169.54909 37.417512 169.79483 37.742188 170.03906 A 94.488189 94.488189 0 0 0 38.892578 170.88867 A 94.488189 94.488189 0 0 0 40.892578 172.30664 A 94.488189 94.488189 0 0 0 85.738281 188.57031 C 85.787725 188.57485 85.837253 188.57952 85.886719 188.58398 C 86.20025 188.61228 86.513722 188.63884 86.828125 188.66406 A 94.488189 94.488189 0 0 0 87.921875 188.74609 C 88.504587 188.78609 89.088274 188.82414 89.673828 188.85352 A 94.488189 94.488189 0 0 0 89.814453 188.86133 A 94.488189 94.488189 0 0 0 90.027344 188.87109 C 90.771313 188.90565 91.517282 188.93393 92.265625 188.95117 C 92.272147 188.95132 92.278634 188.95102 92.285156 188.95117 C 93.094261 188.96965 93.904773 188.97661 94.71875 188.97461 C 95.504648 188.97269 96.289045 188.96239 97.070312 188.94141 A 94.488189 94.488189 0 0 0 97.154297 188.93945 C 97.17781 188.9388 97.201101 188.93817 97.224609 188.9375 C 97.947878 188.91691 98.667618 188.88636 99.386719 188.84961 A 94.488189 94.488189 0 0 0 99.744141 188.83008 C 100.36542 188.79599 100.98549 188.75501 101.60352 188.70898 A 94.488189 94.488189 0 0 0 102.30859 188.65234 A 94.488189 94.488189 0 0 0 102.58789 188.62695 C 102.8885 188.60142 103.18848 188.57326 103.48828 188.54492 A 94.488189 94.488189 0 0 0 149.99219 170.95508 A 94.488189 94.488189 0 0 0 150.65234 170.47266 A 94.488189 94.488189 0 0 0 151.65234 169.7207 C 152.00449 169.45272 152.35683 169.1849 152.70508 168.91211 A 94.488189 94.488189 0 0 0 153.18164 168.53516 C 153.20306 168.51815 153.22469 168.50139 153.24609 168.48438 C 153.67255 168.14529 154.09717 167.80328 154.51758 167.45703 A 94.488189 94.488189 0 0 0 154.53125 167.44531 A 94.488189 94.488189 0 0 0 154.875 167.16211 C 155.38483 166.73802 155.88995 166.30953 156.39062 165.875 A 94.488189 94.488189 0 0 0 156.41797 165.85156 C 156.43258 165.83887 156.44633 165.8252 156.46094 165.8125 C 156.96795 165.37159 157.47132 164.92607 157.96875 164.47461 A 94.488189 94.488189 0 0 0 158.20703 164.25977 C 158.21247 164.2548 158.21722 164.24911 158.22266 164.24414 C 158.71507 163.79399 159.20279 163.33926 159.68555 162.87891 A 94.488189 94.488189 0 0 0 159.76562 162.80273 C 159.78659 162.78269 159.80717 162.76225 159.82812 162.74219 C 160.35218 162.24037 160.8704 161.73241 161.38281 161.21875 C 161.9144 160.68586 162.44017 160.14696 162.95898 159.60156 A 94.488189 94.488189 0 0 0 162.96289 159.59766 C 162.96576 159.59464 162.96784 159.5909 162.9707 159.58789 C 163.45003 159.08381 163.92436 158.5751 164.39258 158.06055 A 94.488189 94.488189 0 0 0 164.5625 157.87305 A 94.488189 94.488189 0 0 0 164.57812 157.85547 C 165.0052 157.38337 165.42616 156.90647 165.84375 156.42578 A 94.488189 94.488189 0 0 0 166.11719 156.10938 C 166.52389 155.63704 166.92677 155.16008 167.32422 154.67969 A 94.488189 94.488189 0 0 0 167.6543 154.27539 C 167.94543 153.91954 168.23352 153.56132 168.51953 153.20117 A 94.488189 94.488189 0 0 0 169.26562 152.25 C 169.27048 152.24372 169.27444 152.23675 169.2793 152.23047 C 169.48727 151.96149 169.69332 151.6912 169.89844 151.41992 A 94.488189 94.488189 0 0 0 170.75391 150.26953 A 94.488189 94.488189 0 0 0 188.54883 103.4668 A 94.488189 94.488189 0 0 0 188.55859 103.36914 C 188.58976 103.03492 188.61881 102.70045 188.64648 102.36523 A 94.488189 94.488189 0 0 0 188.73047 101.29102 C 188.7722 100.70454 188.81082 100.11672 188.8418 99.527344 A 94.488189 94.488189 0 0 0 188.84961 99.390625 A 94.488189 94.488189 0 0 0 188.85938 99.183594 C 188.89588 98.437775 188.9262 97.689711 188.94531 96.939453 A 94.488189 94.488189 0 0 0 188.94531 96.921875 C 188.96577 96.112825 188.97657 95.302254 188.97656 94.488281 L 188.97266 93.570312 C 188.96124 92.394996 188.92183 91.225558 188.87305 90.058594 A 94.488189 94.488189 0 0 0 188.87305 90.056641 A 94.488189 94.488189 0 0 0 187.37695 77.179688 C 186.73451 74.138642 183.65845 71.782452 180.05859 72.890625 C 177.8696 73.564889 175.66832 75.894465 176.26562 79.421875 C 177.11812 84.062647 177.5855 88.827035 177.63281 93.679688 L 177.63672 94.488281 C 177.63622 140.33016 140.53309 177.52214 94.691406 177.63477 C 48.847812 177.74664 11.56413 140.73378 11.341797 94.890625 C 11.153578 56.164346 37.501419 21.893851 74.941406 13.664062 C 77.412545 13.12057 79.346172 10.930642 79.371094 8.0820312 C 79.394527 5.3973005 77.143664 2.4779453 73.800781 2.4609375 z M 73.515625 59.550781 C 72.483942 59.588577 71.416355 59.921911 70.398438 60.605469 C 59.541745 68.323816 52.847747 80.957756 52.914062 94.691406 C 53.026314 117.61226 71.668804 136.11844 94.589844 136.0625 C 117.51068 136.00959 136.06224 117.40922 136.0625 94.488281 C 135.99749 91.285986 132.53547 88.231626 128.61328 89.496094 C 126.30401 90.240657 124.78729 92.548492 124.72266 94.488281 C 124.7217 111.15679 111.23095 124.6807 94.5625 124.72266 C 77.893895 124.76045 64.336708 111.30515 64.253906 94.636719 C 64.205528 84.746897 68.992004 75.525681 76.953125 69.859375 C 79.026408 68.303506 79.372915 66.392212 79.371094 65.230469 C 79.365802 61.908967 76.610669 59.429538 73.515625 59.550781 z "
       transform="scale(0.26458333)" />
    <path
       id="path1078"
       style="fill:#000000;fill-opacity:1;stroke-width:1.34371"
       d="M 25.00015,0 C 24.169156,0 23.50051,0.66865535 23.50051,1.4996496 V 24.999846 c 0,0.830994 0.668646,1.49965 1.49964,1.49965 0.830994,0 1.500674,-0.668656 1.500674,-1.49965 V 1.4996496 C 26.500824,0.66865535 25.831144,0 25.00015,0 Z m -5.571714,7.9519247 c -0.141219,0.008 -0.290232,0.0344 -0.447515,0.082599 C 11.841689,10.562746 6.9624989,17.363119 7.0003407,25.087625 c 0.04844,9.923631 8.1194873,17.935976 18.0432173,17.911956 9.924049,-0.024 17.956395,-8.075724 17.956401,-17.999815 l -10e-4,-0.174599 C 42.925087,17.19586 38.065255,10.526127 31.010078,8.0314841 c -1.035255,-0.3383376 -2.010048,0.4073772 -2.0102,1.4159101 -9.2e-5,0.6060558 0.391869,1.1842918 1.009751,1.4138698 5.901645,2.087806 9.928045,7.658607 9.990019,13.992843 v 0.145799 c -1.96e-4,8.269802 -6.693552,14.979336 -14.963324,14.999496 -8.269441,0.02 -14.99502,-6.656754 -15.03567,-14.926117 C 9.969154,18.64739 14.02678,12.95763 20.018577,10.851004 20.591949,10.630406 21.000926,10.08379 21.000422,9.4423143 20.999872,8.7438191 20.41697,7.8949251 19.428436,7.9519847 Z" />
  </g>
</svg>
